<svg xmlns="http://www.w3.org/2000/svg" xmlns:xlink="http://www.w3.org/1999/xlink" id="Layer_1" width="203" height="152" x="0" style="enable-background:new 0 0 203 152" y="0" version="1.1" viewBox="0 0 203 152" xml:space="preserve"><style type="text/css">.st0,.st1{fill:#fff;stroke:#d8d8d8;stroke-miterlimit:10}.st1{fill:none}.st2,.st3{fill:#a0a0a0}.st3{stroke:#fff;stroke-miterlimit:10}</style><rect width="212.7" height="120.4" x="-2.6" y="34.1" class="st0"/><line x1="67" x2="67" y1="154.5" y2="34.3" class="st1"/><line x1="145.6" x2="145.6" y1="156.6" y2="34.5" class="st1"/><path d="M154.5,28.5l-12.4-12.4c-1.1-1.1-1.1-2.8,0-3.9l0,0c1.1-1.1,2.8-1.1,3.9,0l12.4,12.4c1.1,1.1,1.1,2.8,0,3.9l0,0	C157.3,29.4,155.6,29.4,154.5,28.5z" class="st2"/><polygon points="143.6 40 131.2 27.4 144.2 19.6 151.4 26.8" class="st2"/><line x1="-2.5" x2="210.1" y1="54.2" y2="54.2" class="st1"/><line x1="-2.5" x2="210.1" y1="74.2" y2="74.2" class="st1"/><line x1="-2.5" x2="210.1" y1="94.2" y2="94.2" class="st1"/><line x1="-2.5" x2="210.1" y1="114.2" y2="114.2" class="st1"/><line x1="-2.5" x2="210.1" y1="134.2" y2="134.2" class="st1"/><polygon points="99.6 67.4 126.4 32.4 134.7 40.7" class="st3"/><path d="M137.9,48.5l-17.6-17.6c-1.1-1.1-1.1-2.8,0-3.9l2.6-2.8c1.1-1.1,2.8-1.1,3.9,0l17.6,17.6c1.1,1.1,1.1,2.8,0,3.9	l-2.6,2.6C140.7,49.6,139,49.6,137.9,48.5z" class="st3"/></svg>